<svg xmlns="http://www.w3.org/2000/svg" width="20" height="20" fill="none" viewBox="0 0 20 20">
  <path fill="#fff" d="M19.714 15.588 11.907 1.162a2.284 2.284 0 0 0-.808-.85A2.109 2.109 0 0 0 10 0c-.385 0-.763.107-1.098.31a2.284 2.284 0 0 0-.808.85L.287 15.589a2.345 2.345 0 0 0 0 2.253c.192.355.47.65.805.854a2.08 2.08 0 0 0 1.1.304h15.616a2.07 2.07 0 0 0 1.1-.305A2.34 2.34 0 0 0 20 16.715c0-.396-.098-.784-.286-1.127ZM9.286 7.6c0-.202.075-.395.21-.537A.693.693 0 0 1 10 6.84c.19 0 .371.08.505.223.134.142.21.335.21.537v3.8a.785.785 0 0 1-.21.537.693.693 0 0 1-.505.223.693.693 0 0 1-.505-.223.785.785 0 0 1-.209-.537V7.6ZM10 15.96c-.211 0-.419-.067-.595-.192a1.128 1.128 0 0 1-.394-.512 1.208 1.208 0 0 1-.061-.659 1.16 1.16 0 0 1 .293-.583c.15-.16.34-.268.548-.312a1.01 1.01 0 0 1 .62.065c.195.086.363.232.48.42.118.187.18.407.18.633 0 .302-.112.592-.313.806a1.04 1.04 0 0 1-.758.334Z"/>
</svg>
