<svg fill="#225677" height="200px" width="200px" version="1.1" id="Layer_1" xmlns="http://www.w3.org/2000/svg" xmlns:xlink="http://www.w3.org/1999/xlink" viewBox="0 0 512 512" xml:space="preserve"><g id="SVGRepo_bgCarrier" stroke-width="0"></g><g id="SVGRepo_tracerCarrier" stroke-linecap="round" stroke-linejoin="round"></g><g id="SVGRepo_iconCarrier"> <g> <g> <path d="M349.091,89.6c-6.982,0-11.636,4.655-11.636,11.636c0,6.982,4.655,11.636,11.636,11.636 c76.8,0,139.636,2.327,139.636,20.945c0,45.382-115.2,96.582-182.691,125.673c-8.145-6.982-13.964-23.273-13.964-36.073 c0-12.8,4.655-24.436,12.8-32.582c12.8-11.636,19.782-30.255,19.782-48.873c0-22.109-11.636-41.891-31.418-51.2 c-1.164-1.164-3.491-1.164-4.655-1.164c-16.291-1.164-33.745-2.327-50.036-3.491c-26.764-2.327-54.691-4.655-80.291-4.655 c-75.636,0-112.873,33.745-131.491,61.673C13.964,162.909,0,198.982,0,231.564c0,31.418,13.964,72.145,24.436,104.727 c2.327,5.818,3.491,11.636,5.818,16.291c2.327,6.982,4.655,13.964,5.818,19.782c10.473,32.582,17.455,58.182,48.873,58.182 c17.455,0,37.236-18.618,70.982-52.364c22.109-22.109,47.709-46.545,64-54.691c11.636-5.818,25.6-11.636,40.727-17.455 c5.818-2.327,8.145-9.309,5.818-15.127s-9.309-8.146-15.127-5.818c-15.127,6.982-29.091,12.8-40.727,17.455 c-20.945,9.309-46.545,34.909-70.982,59.345c-18.618,17.455-46.545,45.382-54.691,45.382c-11.636,0-16.291-8.146-25.6-41.891 c-2.327-5.818-3.491-12.8-5.818-19.782c-2.327-5.818-3.491-11.636-5.818-17.455c-10.473-31.418-23.273-69.818-23.273-96.582 c0-30.255,13.964-61.673,22.109-74.473c22.109-34.909,60.509-52.364,112.873-52.364c24.436,0,52.364,2.327,79.127,4.655 c16.291,1.164,32.582,2.327,48.873,3.491c10.473,5.818,16.291,16.291,16.291,29.091s-4.655,24.436-12.8,32.582 c-12.8,11.636-19.782,30.255-19.782,48.873c0,17.455,8.146,47.709,31.418,59.345c3.491,1.164,6.982,1.164,9.309,0 C411.927,238.545,512,190.836,512,133.818C512,91.927,452.655,89.6,349.091,89.6z"></path> </g> </g> </g></svg>