<?xml version="1.0" encoding="UTF-8" standalone="no"?>
<svg
   fill="#000000"
   width="598.21387"
   height="532.44403"
   viewBox="0 -8 53.839248 47.919963"
   id="Layer_1"
   data-name="Layer 1"
   version="1.1"
   xmlns="http://www.w3.org/2000/svg"
   xmlns:svg="http://www.w3.org/2000/svg">
  <defs
     id="defs116">
    <clipPath
       clipPathUnits="userSpaceOnUse"
       id="clipPath401">
      <rect
         style="fill:#000000;fill-opacity:0;stroke:#000000;stroke-width:0"
         id="rect403"
         width="54"
         height="54"
         x="8.1761045"
         y="0.20492218"
         ry="6.2660823" />
    </clipPath>
    <clipPath
       clipPathUnits="userSpaceOnUse"
       id="clipPath405">
      <rect
         style="fill:#000000;fill-opacity:0;stroke:#000000;stroke-width:0"
         id="rect407"
         width="54"
         height="54"
         x="8.1761045"
         y="0.20492218"
         ry="6.2660823" />
    </clipPath>
    <clipPath
       clipPathUnits="userSpaceOnUse"
       id="clipPath409">
      <rect
         style="fill:#000000;fill-opacity:0;stroke:#000000;stroke-width:0"
         id="rect411"
         width="54"
         height="54"
         x="8.1761045"
         y="0.20492218"
         ry="6.2660823" />
    </clipPath>
    <clipPath
       clipPathUnits="userSpaceOnUse"
       id="clipPath413">
      <rect
         style="fill:#000000;fill-opacity:0;stroke:#000000;stroke-width:0"
         id="rect415"
         width="54"
         height="54"
         x="8.1761045"
         y="0.20492218"
         ry="6.2660823" />
    </clipPath>
  </defs>
  <title
     id="title105">construction</title>
  <path
     d="m 27.69,34.62 -4.85,-7.84 0.37,-0.36 1.6,1.37 a 1.5,1.5 0 0 0 0.53,1.93 1.54,1.54 0 0 0 0.81,0.23 1.49,1.49 0 0 0 0.87,-0.27 L 37,38.2 a 0.62,0.62 0 0 0 0.44,0.18 0.64,0.64 0 0 0 0.47,-0.21 0.65,0.65 0 0 0 0,-0.91 l -10.11,-8.6 5,-7.88 a 1.49,1.49 0 0 0 0,-1.62 2.26,2.26 0 0 0 -0.25,-0.29 L 26.74,12 A 1.5,1.5 0 0 0 25.5,11.34 v 0 l -7.67,0.07 a 1.22,1.22 0 0 0 -1.07,0.69 l -2.37,5.09 -0.63,-0.54 a 0.63,0.63 0 0 0 -0.9,0 0.64,0.64 0 0 0 0,0.91 l 0.93,0.8 -0.24,0.53 a 1.52,1.52 0 0 0 0.59,2 1.42,1.42 0 0 0 0.74,0.2 1.51,1.51 0 0 0 1.27,-0.7 l 0.78,0.67 -3.53,3.81 a 2.37,2.37 0 0 0 -0.76,1.66 l -0.26,8.58 -2.33,10.08 a 2.35,2.35 0 0 0 1.76,2.81 2.48,2.48 0 0 0 0.54,0.06 2.35,2.35 0 0 0 2.29,-1.83 l 2.44,-10.53 0.23,-7.63 1.4,1 4,6.49 -4.38,9.15 a 2.35,2.35 0 1 0 4.25,2 L 27.76,36 a 1.37,1.37 0 0 0 -0.07,-1.38 z"
     id="path107"
     clip-path="url(#clipPath413)"
     transform="translate(-8.1761045,-8.2150602)" />
  <circle
     cx="33.459999"
     cy="12.22"
     r="4.3000002"
     id="circle109"
     clip-path="url(#clipPath409)"
     transform="translate(-8.1761045,-8.2150602)" />
  <path
     d="m 61.39,45.33 c -1.44,-2.1 -8.34,-15.16 -10.12,-17 -1.78,-1.84 -3.36,-2.08 -4.44,-1.64 a 6.94,6.94 0 0 0 -3,2.24 c -1.27,1.73 -3,6.91 -4.44,9.23 a 11.08,11.08 0 0 0 -0.8,1 l -0.08,0.06 c -1.06,0.64 -4,1.19 -5.19,2.4 a 15.63,15.63 0 0 0 -1.92,2.6 l -0.18,0.25 a 8.22,8.22 0 0 1 -3.93,3.27 v 0.32 h 33.14 c 0.23,0.02 2.72,-0.16 0.96,-2.73 z"
     id="path111"
     clip-path="url(#clipPath405)"
     transform="translate(-8.1761045,-8.2150602)" />
  <rect
     style="fill:#000000;fill-opacity:0;stroke:#000000;stroke-width:0"
     id="rect397"
     width="18.809458"
     height="24.32258"
     x="4.9710751"
     y="0.2150605"
     clip-path="url(#clipPath401)"
     transform="translate(-8.1761045,-8.2150602)" />
</svg>
