<?xml version="1.0" encoding="UTF-8" standalone="no"?>
<svg
   id="Ebene_1"
   x="0"
   y="0"
   version="1.1"
   viewBox="0 0 1209.5 344.4"
   style="enable-background:new 0 0 1209.5 344.4"
   xml:space="preserve"
   sodipodi:docname="ImageC_Logo-horizontal.svg"
   inkscape:version="1.2.2 (b0a8486541, 2022-12-01)"
   xmlns:inkscape="http://www.inkscape.org/namespaces/inkscape"
   xmlns:sodipodi="http://sodipodi.sourceforge.net/DTD/sodipodi-0.dtd"
   xmlns:xlink="http://www.w3.org/1999/xlink"
   xmlns="http://www.w3.org/2000/svg"
   xmlns:svg="http://www.w3.org/2000/svg"><defs
     id="defs62"><linearGradient
       inkscape:collect="always"
       id="linearGradient3411"><stop
         style="stop-color:#000000;stop-opacity:1;"
         offset="0"
         id="stop3407" /><stop
         style="stop-color:#000000;stop-opacity:1;"
         offset="1"
         id="stop3409" /></linearGradient><linearGradient
       id="linearGradient3375"
       inkscape:swatch="gradient"><stop
         style="stop-color:#000000;stop-opacity:1;"
         offset="0"
         id="stop3371" /><stop
         style="stop-color:#211313;stop-opacity:0;"
         offset="1"
         id="stop3373" /></linearGradient><rect
       x="450.41043"
       y="88.721271"
       width="751.79671"
       height="183.2802"
       id="rect1178" /><linearGradient
       inkscape:collect="always"
       xlink:href="#linearGradient3411"
       id="linearGradient3413"
       x1="475.05982"
       y1="166.96027"
       x2="1161.4598"
       y2="166.96027"
       gradientUnits="userSpaceOnUse"
       gradientTransform="translate(0,2)" /></defs><sodipodi:namedview
     id="namedview60"
     pagecolor="#ffffff"
     bordercolor="#000000"
     borderopacity="0.25"
     inkscape:showpageshadow="2"
     inkscape:pageopacity="0.0"
     inkscape:pagecheckerboard="0"
     inkscape:deskcolor="#d1d1d1"
     showgrid="false"
     inkscape:zoom="0.90028971"
     inkscape:cx="592.03165"
     inkscape:cy="151.61786"
     inkscape:window-width="1878"
     inkscape:window-height="1131"
     inkscape:window-x="42"
     inkscape:window-y="32"
     inkscape:window-maximized="1"
     inkscape:current-layer="Ebene_1" /><style
     type="text/css"
     id="style49">.st0{fill:#fff100}</style><text
     xml:space="preserve"
     id="text1176"
     style="fill:#000000;fill-opacity:0;white-space:pre;shape-inside:url(#rect1178)" /><text
     xml:space="preserve"
     style="font-style:normal;font-variant:normal;font-weight:bold;font-stretch:normal;font-size:192px;font-family:Carlito;-inkscape-font-specification:'Carlito, Bold';font-variant-ligatures:normal;font-variant-caps:normal;font-variant-numeric:normal;font-variant-east-asian:normal;fill:url(#linearGradient3413);fill-opacity:1;stroke:none;stroke-opacity:1"
     x="467.37982"
     y="215.42427"
     id="text1184"><tspan
       sodipodi:role="line"
       id="tspan1182"
       x="467.37982"
       y="215.42427"
       style="font-style:normal;font-variant:normal;font-weight:bold;font-stretch:normal;font-size:192px;font-family:Carlito;-inkscape-font-specification:'Carlito, Bold';font-variant-ligatures:normal;font-variant-caps:normal;font-variant-numeric:normal;font-variant-east-asian:normal;fill:url(#linearGradient3413);fill-opacity:1;stroke:none;stroke-opacity:1">ImageC</tspan></text><g
     style="clip-rule:evenodd;fill-rule:evenodd;image-rendering:optimizeQuality;shape-rendering:geometricPrecision;text-rendering:geometricPrecision"
     id="g1935"
     transform="matrix(0.21785448,0,0,0.21589885,16.027052,10.856439)"><g
       id="g1547"><path
         style="opacity:0.924"
         fill="#7d7d7c"
         d="m 894.5,3.5 c 23.332,-2.09972 38.499,7.9003 45.5,30 2.585,23.3517 -7.249,38.5184 -29.5,45.5 -23.352,2.5847 -38.518,-7.2487 -45.5,-29.5 -2.465,-23.4375 7.369,-38.7709 29.5,-46 z"
         id="path1545" /></g><g
       id="g1551"><path
         style="opacity:1"
         fill="#fde498"
         d="m 895.5,8.5 c 19.914,-1.46621 33.081,7.2005 39.5,26 1.951,19.9343 -6.549,33.1009 -25.5,39.5 -24.581,1.5876 -37.915,-9.9124 -40,-34.5 2.176,-15.8375 10.842,-26.1709 26,-31 z"
         id="path1549" /></g><g
       id="g1555"><path
         style="opacity:0.93"
         fill="#7e7e7c"
         d="m 605.5,28.5 c 46.81,-3.3454 82.644,14.6546 107.5,54 18,35.667 18,71.333 0,107 -24.835,39.501 -60.668,57.334 -107.5,53.5 -44.626,-7.063 -74.459,-31.896 -89.5,-74.5 -11.883,-45.32 -0.716,-83.82 33.5,-115.5 16.47,-13.3186 35.137,-21.4853 56,-24.5 z"
         id="path1553" /></g><g
       id="g1559"><path
         style="opacity:0.925"
         fill="#7d7c7c"
         d="m 1031.5,31.5 c 23.33,-2.0997 38.5,7.9003 45.5,30 2.58,23.3517 -7.25,38.518 -29.5,45.5 -23.35,2.585 -38.52,-7.2487 -45.5,-29.5 -2.465,-23.4375 7.37,-38.7709 29.5,-46 z"
         id="path1557" /></g><g
       id="g1563"><path
         style="opacity:1"
         fill="#fee598"
         d="m 606.5,33.5 c 44.744,-2.2844 78.911,15.3823 102.5,53 19.472,40.071 16.139,78.071 -10,114 C 668.963,233.844 632.129,245.011 588.5,234 547.516,219.349 523.683,190.516 517,147.5 514.479,96.6902 536.313,60.8569 582.5,40 c 8.117,-2.1935 16.117,-4.3602 24,-6.5 z"
         id="path1561" /></g><g
       id="g1567"><path
         style="opacity:1"
         fill="#f9e3d4"
         d="m 1032.5,36.5 c 19.91,-1.4662 33.08,7.2005 39.5,26 1.95,19.9343 -6.55,33.1009 -25.5,39.5 -19.93,1.951 -33.1,-6.5489 -39.5,-25.5 -1.83,-20.0211 6.67,-33.3545 25.5,-40 z"
         id="path1565" /></g><g
       id="g1571"><path
         style="opacity:0.933"
         fill="#7d7c7c"
         d="m 1171.5,99.5 c 36.11,-3.0382 61.94,11.629 77.5,44 11.48,36.553 1.65,65.72 -29.5,87.5 -33.73,16.846 -63.9,12.013 -90.5,-14.5 -17.28,-22.064 -21.28,-46.398 -12,-73 10.91,-23.754 29.08,-38.421 54.5,-44 z"
         id="path1569" /></g><g
       id="g1575"><path
         style="opacity:0.931"
         fill="#7e7e7d"
         d="m 846.5,102.5 c 41.732,-2.8913 71.565,14.442 89.5,52 13.878,44.707 1.378,79.873 -37.5,105.5 -39.828,17.948 -74.661,11.115 -104.5,-20.5 -19.595,-25.909 -23.928,-54.243 -13,-85 12.789,-28.95 34.623,-46.283 65.5,-52 z"
         id="path1573" /></g><g
       id="g1579"><path
         style="opacity:1"
         fill="#f7caac"
         d="m 1174.5,104.5 c 34.47,-1.445 58.14,13.722 71,45.5 7.86,32.755 -2.14,58.422 -30,77 -31.63,15.035 -59.46,9.868 -83.5,-15.5 -19.29,-27.676 -19.29,-55.343 0,-83 11.38,-13.102 25.55,-21.102 42.5,-24 z"
         id="path1577" /></g><g
       id="g1583"><path
         style="opacity:1"
         fill="#fef1cb"
         d="m 847.5,107.5 c 38.997,-2.265 66.831,14.069 83.5,49 10.825,32.527 4.658,61.36 -18.5,86.5 -29.362,24.72 -61.028,28.054 -95,10 -29.108,-20.283 -40.941,-48.117 -35.5,-83.5 9.378,-33.921 31.211,-54.588 65.5,-62 z"
         id="path1581" /></g><g
       id="g1587"><path
         style="opacity:0.93"
         fill="#7b7b7a"
         d="m 362.5,117.5 c 42.161,-3.179 72.328,14.154 90.5,52 12.947,39.728 3.447,72.895 -28.5,99.5 -25.265,16.789 -52.265,20.123 -81,10 -40.147,-19.788 -56.98,-51.955 -50.5,-96.5 10.198,-35.703 33.365,-57.369 69.5,-65 z"
         id="path1585" /></g><g
       id="g1591"><path
         style="opacity:1"
         fill="#7f6000"
         d="m 364.5,122.5 c 38.933,-2.174 66.766,14.159 83.5,49 11.294,32.084 5.461,60.584 -17.5,85.5 -24.881,22.538 -53.215,28.205 -85,17 -38.783,-19.4 -54.283,-50.567 -46.5,-93.5 10.746,-31.916 32.579,-51.249 65.5,-58 z"
         id="path1589" /></g><g
       id="g1595"><path
         style="opacity:0.933"
         fill="#7b7c7a"
         d="m 185.5,250.5 c 43.142,-2.334 69.976,17.333 80.5,59 3.525,36.13 -10.975,61.963 -43.5,77.5 -36.203,11.267 -65.037,1.433 -86.5,-29.5 -12.667,-24.333 -12.667,-48.667 0,-73 11.666,-18.413 28.166,-29.746 49.5,-34 z"
         id="path1593" /></g><g
       id="g1599"><path
         style="opacity:0.93"
         fill="#7e7c7c"
         d="m 1036.5,250.5 c 43.14,-2.334 69.98,17.333 80.5,59 3.53,36.13 -10.97,61.963 -43.5,77.5 -36.2,11.267 -65.04,1.433 -86.5,-29.5 -12.667,-24.333 -12.667,-48.667 0,-73 11.666,-18.413 28.17,-29.746 49.5,-34 z"
         id="path1597" /></g><g
       id="g1603"><path
         style="opacity:1"
         fill="#548135"
         d="m 186.5,255.5 c 35.06,-2.071 59.06,13.095 72,45.5 7.662,31.689 -1.672,57.022 -28,76 -31.899,16.552 -60.066,11.719 -84.5,-14.5 -18.082,-25.66 -19.082,-51.993 -3,-79 11.017,-14.869 25.517,-24.202 43.5,-28 z"
         id="path1601" /></g><g
       id="g1607"><path
         style="opacity:1"
         fill="#f3b082"
         d="m 1037.5,255.5 c 37.78,-1.878 62.28,15.122 73.5,51 5.16,33.854 -7.34,58.687 -37.5,74.5 -37.88,12.598 -66.38,1.431 -85.5,-33.5 -12.02,-33.937 -3.52,-61.437 25.5,-82.5 7.7,-4.282 15.7,-7.449 24,-9.5 z"
         id="path1605" /></g><g
       id="g1611"><path
         style="opacity:0.926"
         fill="#7c7a79"
         d="m 1301.5,257.5 c 52.82,-2.962 89.66,19.704 110.5,68 14.22,48.997 1.39,89.163 -38.5,120.5 -30.16,19.085 -62.16,22.752 -96,11 -46.82,-21.778 -68.32,-58.611 -64.5,-110.5 9.71,-49.547 39.21,-79.214 88.5,-89 z"
         id="path1609" /></g><g
       id="g1615"><path
         style="opacity:1"
         fill="#833c0c"
         d="m 1302.5,262.5 c 51.37,-2.085 86.54,20.581 105.5,68 10.72,41.29 0.56,76.457 -30.5,105.5 -35.43,26.483 -72.76,29.483 -112,9 -34.61,-22.713 -50.44,-54.88 -47.5,-96.5 9.23,-47.399 37.4,-76.066 84.5,-86 z"
         id="path1613" /></g><g
       id="g1619"><path
         style="opacity:0.925"
         fill="#7d7c7b"
         d="m 624.5,272.5 c 23.332,-2.1 38.499,7.9 45.5,30 2.585,23.352 -7.249,38.518 -29.5,45.5 -23.352,2.585 -38.518,-7.249 -45.5,-29.5 -2.465,-23.438 7.369,-38.771 29.5,-46 z"
         id="path1617" /></g><g
       id="g1623"><path
         style="opacity:1"
         fill="#fdd766"
         d="m 625.5,277.5 c 19.914,-1.466 33.081,7.2 39.5,26 1.951,19.934 -6.549,33.101 -25.5,39.5 -24.581,1.588 -37.915,-9.912 -40,-34.5 2.176,-15.838 10.842,-26.171 26,-31 z"
         id="path1621" /></g><g
       id="g1627"><path
         style="opacity:0.924"
         fill="#7c7c7b"
         d="m 489.5,310.5 c 23.332,-2.1 38.499,7.9 45.5,30 2.585,23.352 -7.249,38.518 -29.5,45.5 -23.352,2.585 -38.518,-7.249 -45.5,-29.5 -2.465,-23.438 7.369,-38.771 29.5,-46 z"
         id="path1625" /></g><g
       id="g1631"><path
         style="opacity:1"
         fill="#be8f03"
         d="m 490.5,315.5 c 19.949,-1.539 33.116,7.128 39.5,26 2.016,19.979 -6.484,33.146 -25.5,39.5 -19.987,2.005 -33.154,-6.495 -39.5,-25.5 -1.83,-20.021 6.67,-33.354 25.5,-40 z"
         id="path1629" /></g><g
       id="g1635"><path
         style="opacity:0.93"
         fill="#7c7c7c"
         d="m 335.5,378.5 c 36.109,-3.038 61.943,11.629 77.5,44 11.483,36.553 1.65,65.72 -29.5,87.5 -33.73,16.846 -63.897,12.013 -90.5,-14.5 -17.277,-22.064 -21.277,-46.398 -12,-73 10.912,-23.754 29.079,-38.421 54.5,-44 z"
         id="path1633" /></g><g
       id="g1639"><path
         style="opacity:1"
         fill="#a8d08d"
         d="m 338.5,383.5 c 37.318,-1.493 61.485,15.507 72.5,51 5.157,33.854 -7.343,58.687 -37.5,74.5 -38.246,12.811 -67.079,1.645 -86.5,-33.5 -12.922,-39.311 -1.088,-68.478 35.5,-87.5 5.374,-1.84 10.707,-3.34 16,-4.5 z"
         id="path1637" /></g><g
       id="g1643"><path
         style="opacity:0.925"
         fill="#7d7b7a"
         d="m 1138.5,424.5 c 23.33,-2.1 38.5,7.9 45.5,30 2.58,23.352 -7.25,38.518 -29.5,45.5 -23.35,2.585 -38.52,-7.249 -45.5,-29.5 -2.46,-23.438 7.37,-38.771 29.5,-46 z"
         id="path1641" /></g><g
       id="g1647"><path
         style="opacity:1"
         fill="#c45a12"
         d="m 1139.5,429.5 c 27.17,-0.33 40.34,13.003 39.5,40 -5.22,16.615 -16.56,25.282 -34,26 -22.31,-3.936 -32.65,-17.269 -31,-40 4.02,-13.182 12.52,-21.849 25.5,-26 z"
         id="path1645" /></g><g
       id="g1651"><path
         style="opacity:0.925"
         fill="#7c7c7c"
         d="m 75.5,438.5 c 23.3325,-2.1 38.499,7.9 45.5,30 2.585,23.352 -7.249,38.518 -29.5,45.5 -23.3517,2.585 -38.5184,-7.249 -45.5,-29.5 -2.4645,-23.438 7.3688,-38.771 29.5,-46 z"
         id="path1649" /></g><g
       id="g1655"><path
         style="opacity:1"
         fill="#a8d08d"
         d="m 76.5,443.5 c 19.9142,-1.466 33.081,7.2 39.5,26 1.951,19.934 -6.549,33.101 -25.5,39.5 -19.9343,1.951 -33.1009,-6.549 -39.5,-25.5 -1.8305,-20.021 6.6695,-33.354 25.5,-40 z"
         id="path1653" /></g><g
       id="g1659"><path
         style="opacity:0.931"
         fill="#7d7d7c"
         d="m 197.5,540.5 c 41.732,-2.891 71.565,14.442 89.5,52 13.878,44.707 1.378,79.873 -37.5,105.5 -39.828,17.948 -74.661,11.115 -104.5,-20.5 -19.595,-25.909 -23.928,-54.243 -13,-85 12.789,-28.95 34.623,-46.283 65.5,-52 z"
         id="path1657" /></g><g
       id="g1663"><path
         style="opacity:1"
         fill="#c4dfb3"
         d="m 198.5,545.5 c 38.997,-2.265 66.831,14.069 83.5,49 10.82,32.543 4.654,61.377 -18.5,86.5 -29.362,24.72 -61.028,28.054 -95,10 -29.108,-20.283 -40.941,-48.117 -35.5,-83.5 9.378,-33.921 31.211,-54.588 65.5,-62 z"
         id="path1661" /></g><g
       id="g1667"><path
         style="opacity:0.925"
         fill="#7c7c7c"
         d="m 37.5,566.5 c 23.3325,-2.1 38.4991,7.9 45.5,30 2.5847,23.352 -7.2487,38.518 -29.5,45.5 -23.3517,2.585 -38.5184,-7.249 -45.5,-29.5 -2.46455,-23.438 7.3688,-38.771 29.5,-46 z"
         id="path1665" /></g><g
       id="g1671"><path
         style="opacity:1"
         fill="#d5dae3"
         d="m 38.5,571.5 c 27.1707,-0.33 40.3374,13.003 39.5,40 C 71.5638,630.466 58.3971,638.966 38.5,637 19.5489,630.601 11.0489,617.434 13,597.5 c 4.0168,-13.182 12.5168,-21.849 25.5,-26 z"
         id="path1669" /></g><g
       id="g1675"><path
         style="opacity:0.93"
         fill="#7d7d7e"
         d="m 138.5,772.5 c 46.81,-3.345 82.644,14.655 107.5,54 18,35.667 18,71.333 0,107 C 221.165,973.001 185.332,990.834 138.5,987 93.8745,979.937 64.0411,955.104 49,912.5 37.1174,867.18 48.2841,828.68 82.5,797 c 16.4703,-13.319 35.137,-21.485 56,-24.5 z"
         id="path1673" /></g><g
       id="g1679"><path
         style="opacity:1"
         fill="#b3c6e6"
         d="m 139.5,777.5 c 44.744,-2.284 78.911,15.382 102.5,53 19.472,40.071 16.139,78.071 -10,114 C 201.963,977.844 165.129,989.011 121.5,978 80.5162,963.349 56.6829,934.516 50,891.5 47.4793,840.69 69.3126,804.857 115.5,784 c 8.117,-2.194 16.117,-4.36 24,-6.5 z"
         id="path1677" /></g><g
       id="g1683"><path
         style="opacity:0.93"
         fill="#7b7b7c"
         d="m 353.5,844.5 c 32.297,-0.87 47.463,14.796 45.5,47 -6.982,22.251 -22.148,32.085 -45.5,29.5 -15.833,-3.833 -25.667,-13.667 -29.5,-29.5 -2.771,-23.825 7.062,-39.492 29.5,-47 z"
         id="path1681" /></g><g
       id="g1687"><path
         style="opacity:1"
         fill="#8396af"
         d="m 354.5,849.5 c 27.634,-0.2 40.801,13.467 39.5,41 -6.35,18.931 -19.516,27.431 -39.5,25.5 -21.74,-8.312 -29.573,-23.812 -23.5,-46.5 5.045,-10.083 12.878,-16.75 23.5,-20 z"
         id="path1685" /></g><g
       id="g1691"><path
         style="opacity:0.932"
         fill="#7e7b7b"
         d="m 1171.5,958.5 c 36.11,-3.038 61.94,11.629 77.5,44 11.27,36.2 1.43,65.04 -29.5,86.5 -24.33,12.67 -48.67,12.67 -73,0 -30.93,-21.46 -40.77,-50.3 -29.5,-86.5 10.67,-24.07 28.84,-38.737 54.5,-44 z"
         id="path1689" /></g><g
       id="g1695"><path
         style="opacity:1"
         fill="#fe5050"
         d="m 1174.5,963.5 c 32.27,-1.532 55.43,12.134 69.5,41 9.71,31.19 1.88,57.02 -23.5,77.5 -25.01,15.26 -50.01,15.26 -75,0 -25.38,-20.48 -33.21,-46.31 -23.5,-77.5 10.58,-22.687 28.08,-36.353 52.5,-41 z"
         id="path1693" /></g><g
       id="g1699"><path
         style="opacity:0.925"
         fill="#7b7b7c"
         d="m 376.5,965.5 c 23.332,-2.1 38.499,7.9 45.5,30 2.585,23.35 -7.249,38.52 -29.5,45.5 -23.352,2.58 -38.518,-7.25 -45.5,-29.5 -2.465,-23.438 7.369,-38.771 29.5,-46 z"
         id="path1697" /></g><g
       id="g1703"><path
         style="opacity:0.925"
         fill="#7d7a79"
         d="m 1476.5,995.5 c 0,5.33 0,10.67 0,16 -10.25,27.45 -29.25,35.95 -57,25.5 -17.63,-11.88 -23.13,-28.05 -16.5,-48.5 12.53,-22.29 30.7,-28.457 54.5,-18.5 9.63,6.122 15.97,14.622 19,25.5 z"
         id="path1701" /></g><g
       id="g1707"><path
         style="opacity:1"
         fill="#4472c3"
         d="m 377.5,970.5 c 27.171,-0.33 40.337,13.003 39.5,40 -6.399,18.95 -19.566,27.45 -39.5,25.5 -18.936,-6.36 -27.436,-19.53 -25.5,-39.5 4.017,-13.182 12.517,-21.849 25.5,-26 z"
         id="path1705" /></g><g
       id="g1711"><path
         style="opacity:1"
         fill="#cb3301"
         d="m 1431.5,970.5 c 27.17,-0.33 40.34,13.003 39.5,40 -6.4,18.95 -19.57,27.45 -39.5,25.5 -16.75,-5.31 -25.42,-16.81 -26,-34.5 2.18,-15.838 10.84,-26.171 26,-31 z"
         id="path1709" /></g><g
       id="g1715"><path
         style="opacity:0.931"
         fill="#7a7b7c"
         d="m 197.5,1036.5 c 41.732,-2.89 71.565,14.44 89.5,52 13.878,44.71 1.378,79.87 -37.5,105.5 -39.828,17.95 -74.661,11.12 -104.5,-20.5 -19.595,-25.91 -23.928,-54.24 -13,-85 12.789,-28.95 34.623,-46.28 65.5,-52 z"
         id="path1713" /></g><g
       id="g1719"><path
         style="opacity:1"
         fill="#2f5596"
         d="m 198.5,1041.5 c 38.937,-2.17 66.77,14.17 83.5,49 10.563,31.07 5.23,59.07 -16,84 -24.674,23.63 -53.174,29.79 -85.5,18.5 -37.216,-18.26 -53.049,-48.09 -47.5,-89.5 9.378,-33.92 31.211,-54.59 65.5,-62 z"
         id="path1717" /></g><g
       id="g1723"><path
         style="opacity:0.931"
         fill="#7c7b7e"
         d="m 463.5,1071.5 c 36.109,-3.04 61.943,11.63 77.5,44 11.267,36.2 1.433,65.04 -29.5,86.5 -24.333,12.67 -48.667,12.67 -73,0 -30.933,-21.46 -40.767,-50.3 -29.5,-86.5 10.672,-24.07 28.839,-38.74 54.5,-44 z"
         id="path1721" /></g><g
       id="g1727"><path
         style="opacity:0.932"
         fill="#7e7979"
         d="m 1329.5,1071.5 c 36.11,-3.04 61.94,11.63 77.5,44 11.27,36.2 1.43,65.04 -29.5,86.5 -24.33,12.67 -48.67,12.67 -73,0 -30.93,-21.46 -40.77,-50.3 -29.5,-86.5 10.67,-24.07 28.84,-38.74 54.5,-44 z"
         id="path1725" /></g><g
       id="g1731"><path
         style="opacity:1"
         fill="#9866fe"
         d="m 466.5,1076.5 c 32.479,-1.85 55.646,11.81 69.5,41 9.716,31.18 1.882,57.02 -23.5,77.5 -25.005,15.29 -50.005,15.29 -75,0 -25.382,-20.48 -33.216,-46.32 -23.5,-77.5 10.577,-22.69 28.077,-36.35 52.5,-41 z"
         id="path1729" /></g><g
       id="g1735"><path
         style="opacity:1"
         fill="#fe0100"
         d="m 1332.5,1076.5 c 32.5,-1.84 55.67,11.82 69.5,41 10.31,32.95 1.48,59.45 -26.5,79.5 -36.18,17.58 -66.35,10.41 -90.5,-21.5 -17.63,-35.88 -10.46,-65.72 21.5,-89.5 8.25,-4.69 16.91,-7.86 26,-9.5 z"
         id="path1733" /></g><g
       id="g1739"><path
         style="opacity:0.924"
         fill="#7c7b7c"
         d="m 1023.5,1078.5 c 23.33,-2.1 38.5,7.9 45.5,30 2.58,23.35 -7.25,38.52 -29.5,45.5 -23.35,2.58 -38.52,-7.25 -45.5,-29.5 -2.465,-23.44 7.37,-38.77 29.5,-46 z"
         id="path1737" /></g><g
       id="g1743"><path
         style="opacity:1"
         fill="#fd3498"
         d="m 1024.5,1083.5 c 19.95,-1.54 33.12,7.13 39.5,26 2.02,19.98 -6.48,33.15 -25.5,39.5 -19.99,2.01 -33.15,-6.49 -39.5,-25.5 -1.83,-20.02 6.67,-33.35 25.5,-40 z"
         id="path1741" /></g><g
       id="g1747"><path
         style="opacity:0.925"
         fill="#7d7b7c"
         d="m 903.5,1108.5 c 23.332,-2.1 38.499,7.9 45.5,30 2.585,23.35 -7.249,38.52 -29.5,45.5 -23.352,2.58 -38.518,-7.25 -45.5,-29.5 -2.465,-23.44 7.369,-38.77 29.5,-46 z"
         id="path1745" /></g><g
       id="g1751"><path
         style="opacity:1"
         fill="#fd6698"
         d="m 904.5,1113.5 c 19.914,-1.47 33.081,7.2 39.5,26 1.951,19.93 -6.549,33.1 -25.5,39.5 -24.581,1.59 -37.915,-9.91 -40,-34.5 2.176,-15.84 10.842,-26.17 26,-31 z"
         id="path1749" /></g><g
       id="g1755"><path
         style="opacity:0.93"
         fill="#7e7d7e"
         d="m 650.5,1191.5 c 42.161,-3.18 72.328,14.15 90.5,52 12.947,39.73 3.447,72.9 -28.5,99.5 -25.265,16.79 -52.265,20.12 -81,10 -40.147,-19.79 -56.98,-51.96 -50.5,-96.5 10.198,-35.7 33.365,-57.37 69.5,-65 z"
         id="path1753" /></g><g
       id="g1759"><path
         style="opacity:0.934"
         fill="#7e7b7b"
         d="m 1145.5,1194.5 c 42.2,-3.16 72.36,14.17 90.5,52 13.42,42.74 1.92,76.91 -34.5,102.5 -29,15.33 -58,15.33 -87,0 -36.42,-25.59 -47.92,-59.76 -34.5,-102.5 13.08,-28.45 34.91,-45.78 65.5,-52 z"
         id="path1757" /></g><g
       id="g1763"><path
         style="opacity:1"
         fill="#fecbfe"
         d="m 652.5,1196.5 c 38.898,-2.23 66.731,14.11 83.5,49 11.586,35.82 3.42,66.32 -24.5,91.5 -32.36,22 -64.693,22 -97,0 -27.92,-25.18 -36.086,-55.68 -24.5,-91.5 12.41,-27.27 33.243,-43.6 62.5,-49 z"
         id="path1761" /></g><g
       id="g1767"><path
         style="opacity:1"
         fill="#fe7c7f"
         d="m 1150.5,1199.5 c 46.3,-0.19 74.8,22.15 85.5,67 2.75,38.01 -12.75,65.51 -46.5,82.5 -41.59,14.36 -74.76,3.52 -99.5,-32.5 -17.79,-35.05 -13.29,-66.89 13.5,-95.5 13.51,-12.09 29.17,-19.26 47,-21.5 z"
         id="path1765" /></g><g
       id="g1771"><path
         style="opacity:0.926"
         fill="#7e7b7e"
         d="m 895.5,1230.5 c 46.324,-3.26 81.49,14.74 105.5,54 21.27,47.14 13.77,88.97 -22.5,125.5 -29.904,24.56 -63.57,31.56 -101,21 -39.613,-14.73 -63.113,-42.89 -70.5,-84.5 -3.447,-52.85 19.053,-89.68 67.5,-110.5 7.086,-2.02 14.086,-3.85 21,-5.5 z"
         id="path1769" /></g><g
       id="g1775"><path
         style="opacity:1"
         fill="#fe66fe"
         d="m 897.5,1235.5 c 52.967,-2.12 88.467,21.54 106.5,71 10.01,46.98 -4.819,83.81 -44.5,110.5 -47.199,23.59 -89.032,16.43 -125.5,-21.5 -25.715,-34.04 -29.382,-70.38 -11,-109 16.854,-28.69 41.688,-45.69 74.5,-51 z"
         id="path1773" /></g><g
       id="g1779"><path
         style="opacity:0.931"
         fill="#7b7a7c"
         d="m 335.5,1236.5 c 36.109,-3.04 61.943,11.63 77.5,44 11.483,36.55 1.65,65.72 -29.5,87.5 -33.73,16.85 -63.897,12.01 -90.5,-14.5 -17.277,-22.06 -21.277,-46.4 -12,-73 10.912,-23.75 29.079,-38.42 54.5,-44 z"
         id="path1777" /></g><g
       id="g1783"><path
         style="opacity:1"
         fill="#70309f"
         d="m 338.5,1241.5 c 32.268,-1.53 55.434,12.13 69.5,41 10.237,31.67 2.404,57.83 -23.5,78.5 -25.011,15.26 -50.011,15.26 -75,0 -25.904,-20.67 -33.737,-46.83 -23.5,-78.5 10.577,-22.69 28.077,-36.35 52.5,-41 z"
         id="path1781" /></g><g
       id="g1787"><path
         style="opacity:0.924"
         fill="#7c7c7d"
         d="m 489.5,1364.5 c 23.332,-2.1 38.499,7.9 45.5,30 2.585,23.35 -7.249,38.52 -29.5,45.5 -23.352,2.58 -38.518,-7.25 -45.5,-29.5 -2.465,-23.44 7.369,-38.77 29.5,-46 z"
         id="path1785" /></g><g
       id="g1791"><path
         style="opacity:1"
         fill="#cb98fd"
         d="m 490.5,1369.5 c 19.914,-1.47 33.081,7.2 39.5,26 1.951,19.93 -6.549,33.1 -25.5,39.5 -24.581,1.59 -37.915,-9.91 -40,-34.5 2.176,-15.84 10.842,-26.17 26,-31 z"
         id="path1789" /></g><g
       id="g1795"><path
         style="opacity:0.924"
         fill="#7d7c7d"
         d="m 625.5,1409.5 c 23.332,-2.1 38.499,7.9 45.5,30 2.585,23.35 -7.249,38.52 -29.5,45.5 -23.352,2.58 -38.518,-7.25 -45.5,-29.5 -2.465,-23.44 7.369,-38.77 29.5,-46 z"
         id="path1793" /></g><g
       id="g1799"><path
         style="opacity:1"
         fill="#fd98fd"
         d="m 626.5,1414.5 c 19.914,-1.47 33.081,7.2 39.5,26 1.951,19.93 -6.549,33.1 -25.5,39.5 -24.581,1.59 -37.915,-9.91 -40,-34.5 2.176,-15.84 10.842,-26.17 26,-31 z"
         id="path1797" /></g></g></svg>
