<?xml version="1.0" encoding="UTF-8"?>
<!DOCTYPE svg PUBLIC "-//W3C//DTD SVG 1.1//EN" "http://www.w3.org/Graphics/SVG/1.1/DTD/svg11.dtd">
<svg xmlns="http://www.w3.org/2000/svg" version="1.1" width="1477px" height="1499px" style="shape-rendering:geometricPrecision; text-rendering:geometricPrecision; image-rendering:optimizeQuality; fill-rule:evenodd; clip-rule:evenodd" xmlns:xlink="http://www.w3.org/1999/xlink">
<g><path style="opacity:0.924" fill="#7d7d7c" d="M 894.5,3.5 C 917.832,1.40028 932.999,11.4003 940,33.5C 942.585,56.8517 932.751,72.0184 910.5,79C 887.148,81.5847 871.982,71.7513 865,49.5C 862.535,26.0625 872.369,10.7291 894.5,3.5 Z"/></g>
<g><path style="opacity:1" fill="#fde498" d="M 895.5,8.5 C 915.414,7.03379 928.581,15.7005 935,34.5C 936.951,54.4343 928.451,67.6009 909.5,74C 884.919,75.5876 871.585,64.0876 869.5,39.5C 871.676,23.6625 880.342,13.3291 895.5,8.5 Z"/></g>
<g><path style="opacity:0.93" fill="#7e7e7c" d="M 605.5,28.5 C 652.31,25.1546 688.144,43.1546 713,82.5C 731,118.167 731,153.833 713,189.5C 688.165,229.001 652.332,246.834 605.5,243C 560.874,235.937 531.041,211.104 516,168.5C 504.117,123.18 515.284,84.68 549.5,53C 565.97,39.6814 584.637,31.5147 605.5,28.5 Z"/></g>
<g><path style="opacity:0.925" fill="#7d7c7c" d="M 1031.5,31.5 C 1054.83,29.4003 1070,39.4003 1077,61.5C 1079.58,84.8517 1069.75,100.018 1047.5,107C 1024.15,109.585 1008.98,99.7513 1002,77.5C 999.535,54.0625 1009.37,38.7291 1031.5,31.5 Z"/></g>
<g><path style="opacity:1" fill="#fee598" d="M 606.5,33.5 C 651.244,31.2156 685.411,48.8823 709,86.5C 728.472,126.571 725.139,164.571 699,200.5C 668.963,233.844 632.129,245.011 588.5,234C 547.516,219.349 523.683,190.516 517,147.5C 514.479,96.6902 536.313,60.8569 582.5,40C 590.617,37.8065 598.617,35.6398 606.5,33.5 Z"/></g>
<g><path style="opacity:1" fill="#f9e3d4" d="M 1032.5,36.5 C 1052.41,35.0338 1065.58,43.7005 1072,62.5C 1073.95,82.4343 1065.45,95.6009 1046.5,102C 1026.57,103.951 1013.4,95.4511 1007,76.5C 1005.17,56.4789 1013.67,43.1455 1032.5,36.5 Z"/></g>
<g><path style="opacity:0.933" fill="#7d7c7c" d="M 1171.5,99.5 C 1207.61,96.4618 1233.44,111.129 1249,143.5C 1260.48,180.053 1250.65,209.22 1219.5,231C 1185.77,247.846 1155.6,243.013 1129,216.5C 1111.72,194.436 1107.72,170.102 1117,143.5C 1127.91,119.746 1146.08,105.079 1171.5,99.5 Z"/></g>
<g><path style="opacity:0.931" fill="#7e7e7d" d="M 846.5,102.5 C 888.232,99.6087 918.065,116.942 936,154.5C 949.878,199.207 937.378,234.373 898.5,260C 858.672,277.948 823.839,271.115 794,239.5C 774.405,213.591 770.072,185.257 781,154.5C 793.789,125.55 815.623,108.217 846.5,102.5 Z"/></g>
<g><path style="opacity:1" fill="#f7caac" d="M 1174.5,104.5 C 1208.97,103.055 1232.64,118.222 1245.5,150C 1253.36,182.755 1243.36,208.422 1215.5,227C 1183.87,242.035 1156.04,236.868 1132,211.5C 1112.71,183.824 1112.71,156.157 1132,128.5C 1143.38,115.398 1157.55,107.398 1174.5,104.5 Z"/></g>
<g><path style="opacity:1" fill="#fef1cb" d="M 847.5,107.5 C 886.497,105.235 914.331,121.569 931,156.5C 941.825,189.027 935.658,217.86 912.5,243C 883.138,267.72 851.472,271.054 817.5,253C 788.392,232.717 776.559,204.883 782,169.5C 791.378,135.579 813.211,114.912 847.5,107.5 Z"/></g>
<g><path style="opacity:0.93" fill="#7b7b7a" d="M 362.5,117.5 C 404.661,114.321 434.828,131.654 453,169.5C 465.947,209.228 456.447,242.395 424.5,269C 399.235,285.789 372.235,289.123 343.5,279C 303.353,259.212 286.52,227.045 293,182.5C 303.198,146.797 326.365,125.131 362.5,117.5 Z"/></g>
<g><path style="opacity:1" fill="#7f6000" d="M 364.5,122.5 C 403.433,120.326 431.266,136.659 448,171.5C 459.294,203.584 453.461,232.084 430.5,257C 405.619,279.538 377.285,285.205 345.5,274C 306.717,254.6 291.217,223.433 299,180.5C 309.746,148.584 331.579,129.251 364.5,122.5 Z"/></g>
<g><path style="opacity:0.933" fill="#7b7c7a" d="M 185.5,250.5 C 228.642,248.166 255.476,267.833 266,309.5C 269.525,345.63 255.025,371.463 222.5,387C 186.297,398.267 157.463,388.433 136,357.5C 123.333,333.167 123.333,308.833 136,284.5C 147.666,266.087 164.166,254.754 185.5,250.5 Z"/></g>
<g><path style="opacity:0.93" fill="#7e7c7c" d="M 1036.5,250.5 C 1079.64,248.166 1106.48,267.833 1117,309.5C 1120.53,345.63 1106.03,371.463 1073.5,387C 1037.3,398.267 1008.46,388.433 987,357.5C 974.333,333.167 974.333,308.833 987,284.5C 998.666,266.087 1015.17,254.754 1036.5,250.5 Z"/></g>
<g><path style="opacity:1" fill="#548135" d="M 186.5,255.5 C 221.56,253.429 245.56,268.595 258.5,301C 266.162,332.689 256.828,358.022 230.5,377C 198.601,393.552 170.434,388.719 146,362.5C 127.918,336.84 126.918,310.507 143,283.5C 154.017,268.631 168.517,259.298 186.5,255.5 Z"/></g>
<g><path style="opacity:1" fill="#f3b082" d="M 1037.5,255.5 C 1075.28,253.622 1099.78,270.622 1111,306.5C 1116.16,340.354 1103.66,365.187 1073.5,381C 1035.62,393.598 1007.12,382.431 988,347.5C 975.98,313.563 984.48,286.063 1013.5,265C 1021.2,260.718 1029.2,257.551 1037.5,255.5 Z"/></g>
<g><path style="opacity:0.926" fill="#7c7a79" d="M 1301.5,257.5 C 1354.32,254.538 1391.16,277.204 1412,325.5C 1426.22,374.497 1413.39,414.663 1373.5,446C 1343.34,465.085 1311.34,468.752 1277.5,457C 1230.68,435.222 1209.18,398.389 1213,346.5C 1222.71,296.953 1252.21,267.286 1301.5,257.5 Z"/></g>
<g><path style="opacity:1" fill="#833c0c" d="M 1302.5,262.5 C 1353.87,260.415 1389.04,283.081 1408,330.5C 1418.72,371.79 1408.56,406.957 1377.5,436C 1342.07,462.483 1304.74,465.483 1265.5,445C 1230.89,422.287 1215.06,390.12 1218,348.5C 1227.23,301.101 1255.4,272.434 1302.5,262.5 Z"/></g>
<g><path style="opacity:0.925" fill="#7d7c7b" d="M 624.5,272.5 C 647.832,270.4 662.999,280.4 670,302.5C 672.585,325.852 662.751,341.018 640.5,348C 617.148,350.585 601.982,340.751 595,318.5C 592.535,295.062 602.369,279.729 624.5,272.5 Z"/></g>
<g><path style="opacity:1" fill="#fdd766" d="M 625.5,277.5 C 645.414,276.034 658.581,284.7 665,303.5C 666.951,323.434 658.451,336.601 639.5,343C 614.919,344.588 601.585,333.088 599.5,308.5C 601.676,292.662 610.342,282.329 625.5,277.5 Z"/></g>
<g><path style="opacity:0.924" fill="#7c7c7b" d="M 489.5,310.5 C 512.832,308.4 527.999,318.4 535,340.5C 537.585,363.852 527.751,379.018 505.5,386C 482.148,388.585 466.982,378.751 460,356.5C 457.535,333.062 467.369,317.729 489.5,310.5 Z"/></g>
<g><path style="opacity:1" fill="#be8f03" d="M 490.5,315.5 C 510.449,313.961 523.616,322.628 530,341.5C 532.016,361.479 523.516,374.646 504.5,381C 484.513,383.005 471.346,374.505 465,355.5C 463.17,335.479 471.67,322.146 490.5,315.5 Z"/></g>
<g><path style="opacity:0.93" fill="#7c7c7c" d="M 335.5,378.5 C 371.609,375.462 397.443,390.129 413,422.5C 424.483,459.053 414.65,488.22 383.5,510C 349.77,526.846 319.603,522.013 293,495.5C 275.723,473.436 271.723,449.102 281,422.5C 291.912,398.746 310.079,384.079 335.5,378.5 Z"/></g>
<g><path style="opacity:1" fill="#a8d08d" d="M 338.5,383.5 C 375.818,382.007 399.985,399.007 411,434.5C 416.157,468.354 403.657,493.187 373.5,509C 335.254,521.811 306.421,510.645 287,475.5C 274.078,436.189 285.912,407.022 322.5,388C 327.874,386.16 333.207,384.66 338.5,383.5 Z"/></g>
<g><path style="opacity:0.925" fill="#7d7b7a" d="M 1138.5,424.5 C 1161.83,422.4 1177,432.4 1184,454.5C 1186.58,477.852 1176.75,493.018 1154.5,500C 1131.15,502.585 1115.98,492.751 1109,470.5C 1106.54,447.062 1116.37,431.729 1138.5,424.5 Z"/></g>
<g><path style="opacity:1" fill="#c45a12" d="M 1139.5,429.5 C 1166.67,429.17 1179.84,442.503 1179,469.5C 1173.78,486.115 1162.44,494.782 1145,495.5C 1122.69,491.564 1112.35,478.231 1114,455.5C 1118.02,442.318 1126.52,433.651 1139.5,429.5 Z"/></g>
<g><path style="opacity:0.925" fill="#7c7c7c" d="M 75.5,438.5 C 98.8325,436.4 113.999,446.4 121,468.5C 123.585,491.852 113.751,507.018 91.5,514C 68.1483,516.585 52.9816,506.751 46,484.5C 43.5355,461.062 53.3688,445.729 75.5,438.5 Z"/></g>
<g><path style="opacity:1" fill="#a8d08d" d="M 76.5,443.5 C 96.4142,442.034 109.581,450.7 116,469.5C 117.951,489.434 109.451,502.601 90.5,509C 70.5657,510.951 57.3991,502.451 51,483.5C 49.1695,463.479 57.6695,450.146 76.5,443.5 Z"/></g>
<g><path style="opacity:0.931" fill="#7d7d7c" d="M 197.5,540.5 C 239.232,537.609 269.065,554.942 287,592.5C 300.878,637.207 288.378,672.373 249.5,698C 209.672,715.948 174.839,709.115 145,677.5C 125.405,651.591 121.072,623.257 132,592.5C 144.789,563.55 166.623,546.217 197.5,540.5 Z"/></g>
<g><path style="opacity:1" fill="#c4dfb3" d="M 198.5,545.5 C 237.497,543.235 265.331,559.569 282,594.5C 292.82,627.043 286.654,655.877 263.5,681C 234.138,705.72 202.472,709.054 168.5,691C 139.392,670.717 127.559,642.883 133,607.5C 142.378,573.579 164.211,552.912 198.5,545.5 Z"/></g>
<g><path style="opacity:0.925" fill="#7c7c7c" d="M 37.5,566.5 C 60.8325,564.4 75.9991,574.4 83,596.5C 85.5847,619.852 75.7513,635.018 53.5,642C 30.1483,644.585 14.9816,634.751 8,612.5C 5.53545,589.062 15.3688,573.729 37.5,566.5 Z"/></g>
<g><path style="opacity:1" fill="#d5dae3" d="M 38.5,571.5 C 65.6707,571.17 78.8374,584.503 78,611.5C 71.5638,630.466 58.3971,638.966 38.5,637C 19.5489,630.601 11.0489,617.434 13,597.5C 17.0168,584.318 25.5168,575.651 38.5,571.5 Z"/></g>
<g><path style="opacity:0.93" fill="#7d7d7e" d="M 138.5,772.5 C 185.31,769.155 221.144,787.155 246,826.5C 264,862.167 264,897.833 246,933.5C 221.165,973.001 185.332,990.834 138.5,987C 93.8745,979.937 64.0411,955.104 49,912.5C 37.1174,867.18 48.2841,828.68 82.5,797C 98.9703,783.681 117.637,775.515 138.5,772.5 Z"/></g>
<g><path style="opacity:1" fill="#b3c6e6" d="M 139.5,777.5 C 184.244,775.216 218.411,792.882 242,830.5C 261.472,870.571 258.139,908.571 232,944.5C 201.963,977.844 165.129,989.011 121.5,978C 80.5162,963.349 56.6829,934.516 50,891.5C 47.4793,840.69 69.3126,804.857 115.5,784C 123.617,781.806 131.617,779.64 139.5,777.5 Z"/></g>
<g><path style="opacity:0.93" fill="#7b7b7c" d="M 353.5,844.5 C 385.797,843.63 400.963,859.296 399,891.5C 392.018,913.751 376.852,923.585 353.5,921C 337.667,917.167 327.833,907.333 324,891.5C 321.229,867.675 331.062,852.008 353.5,844.5 Z"/></g>
<g><path style="opacity:1" fill="#8396af" d="M 354.5,849.5 C 382.134,849.3 395.301,862.967 394,890.5C 387.65,909.431 374.484,917.931 354.5,916C 332.76,907.688 324.927,892.188 331,869.5C 336.045,859.417 343.878,852.75 354.5,849.5 Z"/></g>
<g><path style="opacity:0.932" fill="#7e7b7b" d="M 1171.5,958.5 C 1207.61,955.462 1233.44,970.129 1249,1002.5C 1260.27,1038.7 1250.43,1067.54 1219.5,1089C 1195.17,1101.67 1170.83,1101.67 1146.5,1089C 1115.57,1067.54 1105.73,1038.7 1117,1002.5C 1127.67,978.43 1145.84,963.763 1171.5,958.5 Z"/></g>
<g><path style="opacity:1" fill="#fe5050" d="M 1174.5,963.5 C 1206.77,961.968 1229.93,975.634 1244,1004.5C 1253.71,1035.69 1245.88,1061.52 1220.5,1082C 1195.49,1097.26 1170.49,1097.26 1145.5,1082C 1120.12,1061.52 1112.29,1035.69 1122,1004.5C 1132.58,981.813 1150.08,968.147 1174.5,963.5 Z"/></g>
<g><path style="opacity:0.925" fill="#7b7b7c" d="M 376.5,965.5 C 399.832,963.4 414.999,973.4 422,995.5C 424.585,1018.85 414.751,1034.02 392.5,1041C 369.148,1043.58 353.982,1033.75 347,1011.5C 344.535,988.062 354.369,972.729 376.5,965.5 Z"/></g>
<g><path style="opacity:0.925" fill="#7d7a79" d="M 1476.5,995.5 C 1476.5,1000.83 1476.5,1006.17 1476.5,1011.5C 1466.25,1038.95 1447.25,1047.45 1419.5,1037C 1401.87,1025.12 1396.37,1008.95 1403,988.5C 1415.53,966.21 1433.7,960.043 1457.5,970C 1467.13,976.122 1473.47,984.622 1476.5,995.5 Z"/></g>
<g><path style="opacity:1" fill="#4472c3" d="M 377.5,970.5 C 404.671,970.17 417.837,983.503 417,1010.5C 410.601,1029.45 397.434,1037.95 377.5,1036C 358.564,1029.64 350.064,1016.47 352,996.5C 356.017,983.318 364.517,974.651 377.5,970.5 Z"/></g>
<g><path style="opacity:1" fill="#cb3301" d="M 1431.5,970.5 C 1458.67,970.17 1471.84,983.503 1471,1010.5C 1464.6,1029.45 1451.43,1037.95 1431.5,1036C 1414.75,1030.69 1406.08,1019.19 1405.5,1001.5C 1407.68,985.662 1416.34,975.329 1431.5,970.5 Z"/></g>
<g><path style="opacity:0.931" fill="#7a7b7c" d="M 197.5,1036.5 C 239.232,1033.61 269.065,1050.94 287,1088.5C 300.878,1133.21 288.378,1168.37 249.5,1194C 209.672,1211.95 174.839,1205.12 145,1173.5C 125.405,1147.59 121.072,1119.26 132,1088.5C 144.789,1059.55 166.623,1042.22 197.5,1036.5 Z"/></g>
<g><path style="opacity:1" fill="#2f5596" d="M 198.5,1041.5 C 237.437,1039.33 265.27,1055.67 282,1090.5C 292.563,1121.57 287.23,1149.57 266,1174.5C 241.326,1198.13 212.826,1204.29 180.5,1193C 143.284,1174.74 127.451,1144.91 133,1103.5C 142.378,1069.58 164.211,1048.91 198.5,1041.5 Z"/></g>
<g><path style="opacity:0.931" fill="#7c7b7e" d="M 463.5,1071.5 C 499.609,1068.46 525.443,1083.13 541,1115.5C 552.267,1151.7 542.433,1180.54 511.5,1202C 487.167,1214.67 462.833,1214.67 438.5,1202C 407.567,1180.54 397.733,1151.7 409,1115.5C 419.672,1091.43 437.839,1076.76 463.5,1071.5 Z"/></g>
<g><path style="opacity:0.932" fill="#7e7979" d="M 1329.5,1071.5 C 1365.61,1068.46 1391.44,1083.13 1407,1115.5C 1418.27,1151.7 1408.43,1180.54 1377.5,1202C 1353.17,1214.67 1328.83,1214.67 1304.5,1202C 1273.57,1180.54 1263.73,1151.7 1275,1115.5C 1285.67,1091.43 1303.84,1076.76 1329.5,1071.5 Z"/></g>
<g><path style="opacity:1" fill="#9866fe" d="M 466.5,1076.5 C 498.979,1074.65 522.146,1088.31 536,1117.5C 545.716,1148.68 537.882,1174.52 512.5,1195C 487.495,1210.29 462.495,1210.29 437.5,1195C 412.118,1174.52 404.284,1148.68 414,1117.5C 424.577,1094.81 442.077,1081.15 466.5,1076.5 Z"/></g>
<g><path style="opacity:1" fill="#fe0100" d="M 1332.5,1076.5 C 1365,1074.66 1388.17,1088.32 1402,1117.5C 1412.31,1150.45 1403.48,1176.95 1375.5,1197C 1339.32,1214.58 1309.15,1207.41 1285,1175.5C 1267.37,1139.62 1274.54,1109.78 1306.5,1086C 1314.75,1081.31 1323.41,1078.14 1332.5,1076.5 Z"/></g>
<g><path style="opacity:0.924" fill="#7c7b7c" d="M 1023.5,1078.5 C 1046.83,1076.4 1062,1086.4 1069,1108.5C 1071.58,1131.85 1061.75,1147.02 1039.5,1154C 1016.15,1156.58 1000.98,1146.75 994,1124.5C 991.535,1101.06 1001.37,1085.73 1023.5,1078.5 Z"/></g>
<g><path style="opacity:1" fill="#fd3498" d="M 1024.5,1083.5 C 1044.45,1081.96 1057.62,1090.63 1064,1109.5C 1066.02,1129.48 1057.52,1142.65 1038.5,1149C 1018.51,1151.01 1005.35,1142.51 999,1123.5C 997.17,1103.48 1005.67,1090.15 1024.5,1083.5 Z"/></g>
<g><path style="opacity:0.925" fill="#7d7b7c" d="M 903.5,1108.5 C 926.832,1106.4 941.999,1116.4 949,1138.5C 951.585,1161.85 941.751,1177.02 919.5,1184C 896.148,1186.58 880.982,1176.75 874,1154.5C 871.535,1131.06 881.369,1115.73 903.5,1108.5 Z"/></g>
<g><path style="opacity:1" fill="#fd6698" d="M 904.5,1113.5 C 924.414,1112.03 937.581,1120.7 944,1139.5C 945.951,1159.43 937.451,1172.6 918.5,1179C 893.919,1180.59 880.585,1169.09 878.5,1144.5C 880.676,1128.66 889.342,1118.33 904.5,1113.5 Z"/></g>
<g><path style="opacity:0.93" fill="#7e7d7e" d="M 650.5,1191.5 C 692.661,1188.32 722.828,1205.65 741,1243.5C 753.947,1283.23 744.447,1316.4 712.5,1343C 687.235,1359.79 660.235,1363.12 631.5,1353C 591.353,1333.21 574.52,1301.04 581,1256.5C 591.198,1220.8 614.365,1199.13 650.5,1191.5 Z"/></g>
<g><path style="opacity:0.934" fill="#7e7b7b" d="M 1145.5,1194.5 C 1187.7,1191.34 1217.86,1208.67 1236,1246.5C 1249.42,1289.24 1237.92,1323.41 1201.5,1349C 1172.5,1364.33 1143.5,1364.33 1114.5,1349C 1078.08,1323.41 1066.58,1289.24 1080,1246.5C 1093.08,1218.05 1114.91,1200.72 1145.5,1194.5 Z"/></g>
<g><path style="opacity:1" fill="#fecbfe" d="M 652.5,1196.5 C 691.398,1194.27 719.231,1210.61 736,1245.5C 747.586,1281.32 739.42,1311.82 711.5,1337C 679.14,1359 646.807,1359 614.5,1337C 586.58,1311.82 578.414,1281.32 590,1245.5C 602.41,1218.23 623.243,1201.9 652.5,1196.5 Z"/></g>
<g><path style="opacity:1" fill="#fe7c7f" d="M 1150.5,1199.5 C 1196.8,1199.31 1225.3,1221.65 1236,1266.5C 1238.75,1304.51 1223.25,1332.01 1189.5,1349C 1147.91,1363.36 1114.74,1352.52 1090,1316.5C 1072.21,1281.45 1076.71,1249.61 1103.5,1221C 1117.01,1208.91 1132.67,1201.74 1150.5,1199.5 Z"/></g>
<g><path style="opacity:0.926" fill="#7e7b7e" d="M 895.5,1230.5 C 941.824,1227.24 976.99,1245.24 1001,1284.5C 1022.27,1331.64 1014.77,1373.47 978.5,1410C 948.596,1434.56 914.93,1441.56 877.5,1431C 837.887,1416.27 814.387,1388.11 807,1346.5C 803.553,1293.65 826.053,1256.82 874.5,1236C 881.586,1233.98 888.586,1232.15 895.5,1230.5 Z"/></g>
<g><path style="opacity:1" fill="#fe66fe" d="M 897.5,1235.5 C 950.467,1233.38 985.967,1257.04 1004,1306.5C 1014.01,1353.48 999.181,1390.31 959.5,1417C 912.301,1440.59 870.468,1433.43 834,1395.5C 808.285,1361.46 804.618,1325.12 823,1286.5C 839.854,1257.81 864.688,1240.81 897.5,1235.5 Z"/></g>
<g><path style="opacity:0.931" fill="#7b7a7c" d="M 335.5,1236.5 C 371.609,1233.46 397.443,1248.13 413,1280.5C 424.483,1317.05 414.65,1346.22 383.5,1368C 349.77,1384.85 319.603,1380.01 293,1353.5C 275.723,1331.44 271.723,1307.1 281,1280.5C 291.912,1256.75 310.079,1242.08 335.5,1236.5 Z"/></g>
<g><path style="opacity:1" fill="#70309f" d="M 338.5,1241.5 C 370.768,1239.97 393.934,1253.63 408,1282.5C 418.237,1314.17 410.404,1340.33 384.5,1361C 359.489,1376.26 334.489,1376.26 309.5,1361C 283.596,1340.33 275.763,1314.17 286,1282.5C 296.577,1259.81 314.077,1246.15 338.5,1241.5 Z"/></g>
<g><path style="opacity:0.924" fill="#7c7c7d" d="M 489.5,1364.5 C 512.832,1362.4 527.999,1372.4 535,1394.5C 537.585,1417.85 527.751,1433.02 505.5,1440C 482.148,1442.58 466.982,1432.75 460,1410.5C 457.535,1387.06 467.369,1371.73 489.5,1364.5 Z"/></g>
<g><path style="opacity:1" fill="#cb98fd" d="M 490.5,1369.5 C 510.414,1368.03 523.581,1376.7 530,1395.5C 531.951,1415.43 523.451,1428.6 504.5,1435C 479.919,1436.59 466.585,1425.09 464.5,1400.5C 466.676,1384.66 475.342,1374.33 490.5,1369.5 Z"/></g>
<g><path style="opacity:0.924" fill="#7d7c7d" d="M 625.5,1409.5 C 648.832,1407.4 663.999,1417.4 671,1439.5C 673.585,1462.85 663.751,1478.02 641.5,1485C 618.148,1487.58 602.982,1477.75 596,1455.5C 593.535,1432.06 603.369,1416.73 625.5,1409.5 Z"/></g>
<g><path style="opacity:1" fill="#fd98fd" d="M 626.5,1414.5 C 646.414,1413.03 659.581,1421.7 666,1440.5C 667.951,1460.43 659.451,1473.6 640.5,1480C 615.919,1481.59 602.585,1470.09 600.5,1445.5C 602.676,1429.66 611.342,1419.33 626.5,1414.5 Z"/></g>
</svg>
